# xmcd
# 
# Track frame offsets:
#     150
#     10741
#     24731
#     43757
#     66336
#     83259
#     96964
#     112392
#     123660
#     138722
#     200799
#     212749
#     226500
#     248250
#     271355
#     298549
#     321176
# 
# Disc length: 4658
# 
# Revision: 2
# Processed by: cddbd v1.5.2PL0 Copyright (c) Steve Scherf et al.
# Submitted via: fre:ac v1.0.31
# 
DISCID=f7123011
DTITLE=Sly and The Family Stone - Higher! Disc 3
DYEAR=2013
DGENRE=R&B
TTITLE0=Everyday People
TTITLE1=Sing a Simple Song
TTITLE2=I Get High on You (version two)
TTITLE3=Wonderful World of Color (instrumental)
TTITLE4=Pressure
TTITLE5=I Want to Take You Higher
TTITLE6=Seven More Days
TTITLE7=Feathers (instrumental)
TTITLE8=Somebody's Watching You
TTITLE9=Sex Machine
TTITLE10=Hot Fun in the Summertime
TTITLE11=Everybody is a Star
TTITLE12=Thank You (Falettinme Be Mice Elf Agin)
TTITLE13=Stand! (live from the Isle of Wight Festival)
TTITLE14=You Can Make It If You Try (live from the Isle of Wight Festival)
TTITLE15=Dance to the Music (live from the Isle of Wight Festival)
TTITLE16=Medley:  Music Lover - I Want to Take You Higher - Music Lover (live from the Isle of Wight Festival)
EXTD=
EXTT0=
EXTT1=
EXTT2=
EXTT3=
EXTT4=
EXTT5=
EXTT6=
EXTT7=
EXTT8=
EXTT9=
EXTT10=
EXTT11=
EXTT12=
EXTT13=
EXTT14=
EXTT15=
EXTT16=
PLAYORDER=
